<svg version="1.1" xmlns="http://www.w3.org/2000/svg" xmlns:xlink="http://www.w3.org/1999/xlink" x="0px" y="0px"
    viewBox="0 0 256 256" enable-background="new 0 0 256 256" xml:space="preserve">
    <metadata> Svg Vector Icons : http://www.onlinewebfonts.com/icon </metadata>
    <g>
        <g>
            <path stroke-width="3" fill-opacity="0" stroke="#000000"
                d="M44.2,70.3c1.3-0.1,1.4,0.5,2.1,0.9c4.7,2.9-4.2,7.3-6.3,7.3c-0.8,0-1.7-0.4-2.1-0.9c-1.3-1.6,0.2-2.3,1.1-3.2l0.6-0.7C39.9,72.8,43.1,70.3,44.2,70.3L44.2,70.3z" />
            <path stroke-width="3" fill-opacity="0" stroke="#000000"
                d="M52.1,64.7c0.6-0.2,2.9-0.8,3.8,0.9c0.9,1.7-0.4,12.2-0.4,19c0,1.3-0.4,3.5,0,4.7c0.1,0.2,2.2,2.5,2.5,2.6c1.8,0.5,8.3-0.4,8.8-1.3c0.6-1.1,0.2-2.4,0.4-3.9c-3.7,0-7.7-1.4-7.9-1.7c-0.2-0.2-0.9-0.8,0-1.7c0.9-1,5.2-1.5,8.4-1.3c-0.2-2.6,0.6-5.5-0.8-5.6c-1.4-0.1-6.1-0.8-6.7-1.3c-0.6-0.5-1.1-1.4-0.8-2.6c0.2-1.2,0.8-1.2,1.3-1.3c2.2-0.7,5.1,0.3,6.3,0.9c5.2,2.3,6.3,4.3,5.9,11.2c-0.6,7.5,1.1,9.6-4.2,12.5c-1.6,0.9-1.9,1.5-5,1.3c-1.3-0.1-4.8-1.1-6.7-0.4c-0.2,0-0.6,1.3-1.4,1.5c-0.5,0.5-0.1,0.5-0.3,0.7c-0.2,0.2,0,0.9,0,0.9c1.4,0.4,2.4,0.3,3.8,0.8l5,3c1.4,1.9,1.6,6.9,0.4,9.1c-0.7,1.2-2.6,1.8-3.3,3c-0.2,0.4-0.1,1.3-0.4,1.7c0.5,0.4,0.3,0.9,0.8,1.3c0.7,0.5,1.5,0,2.5,0.4c1.2,0.4,2.8,1.5,4.2,2.2c0,0.1,0,0.3,0,0.4c1.1,0.2,2.2-0.3,3.3,0c0.3,0.1,1.6,1.2,2.1,1.3c2.6,0.7,4.1-0.2,5,2.1c0.7,1.9,0.3,4.9-1.3,5.6c-4.6,2.1-10.4-2.8-13-4.3c-1.1-0.6-2.2-0.6-3.3-1.3c-1.8-1.2-3.7-3.9-7.9-2.6c-0.7,0.2-2.1,2.1-2.9,2.6c-1,0.5-1.8,0.4-2.9,0.9c-2.7,1.2-6.8,5.3-12.1,3.4c-0.2,0-0.7-1.2-0.8-1.3c-1.4-1.9-0.9-2-0.4-4.3c1.7,0,3.9-0.3,5-0.5c4.1-0.6,8.2-1.8,9.6-3.4c1.4-1.7-0.9-4.1-2.9-6.9c-0.5-0.6-0.3-1.3-0.8-1.7c-1.4-1.2-3.2-1.5-4.6-2.6c-0.3-0.2-0.2-0.4-0.6-0.4c-1.8-0.2-1.1-3.3,2.2-3.1c2,0.2,11.6,8.7,12.1,9.1c0.5,0.4,1.4,0.3,2.1,0c0.5-0.2,0.8-0.8,1.1-1.1c0.7-0.7,1.8-1.7,2.2-2.7c0.4-1.1,0-3.5,0-3.5c-0.5-0.3-1-1.9-2.1-2.2c-2.2-0.6-6.6,0.8-7.5,0c-0.9-0.8-0.2-2.9,0.4-3.9l2.9-1.3c-0.2-0.1-0.1-0.4-0.6-1.1c-0.4-0.7-0.3-0.7-0.7-1c-2.9-2.1-7.8,0.6-11.3-0.8c-4-1.7-3.3-3.2-3.3-8.6c0,0-0.1-2.4,0-2.6c0.1-0.2-0.4-4.3,0.9-5.6c1.2-1.3,2.9-0.8,4.2,3.5c2.5,0,5.9,0.2,6.7,0.4c0.8,0.2,1.1,1.4,0.4,2.1c-0.7,0.8-2.1,1.2-4.2,1.7c-0.5,0.1-1.8,0.4-2.9,0.4c-0.2,3,0,4.4,0.8,4.8c0.8,0.3,7.6-0.3,8.4-3c0.6-2.6,0.2-6.8,0-9.5c-0.2-2.9-1.4-12.8-0.4-14.7C51.1,65.2,51.5,64.9,52.1,64.7L52.1,64.7z" />
            <path stroke-width="3" fill-opacity="0" stroke="#000000"
                d="M24.5,69.1c1.1-0.4,1.4-0.6,3,0.7c1.6,1.3,1.1,8.3,0.8,11.2c0.5,0.2,0.9,1.2,1.3,1.3c1,0.3,2.3-0.3,3.3,0c0.7,0.2,1.7,1,2.1,1.7c0.3,0.7,0.5,1.5,0,2.2c-0.5,0.6-1.4,1.1-2.1,1.3c-3.3,0.7-4.9,0-5.9,3c-0.5,1.6-0.7,4.3,0,5.6c0.2,0.3,0.3,0.6,1.3,0.8c0.9,0.3,2.6-0.5,2.9-0.4c0.2,0.1,0.8,0.8,0.8,0.8s0.1,2.1-0.4,3c-0.8,1.3-3.3,1-3.8,3c-0.3,1.3,0.4,3.3,0.4,3.9c0.1,1.4-0.1,4.3-0.1,4.6c0.2,1.8,0.1,0.6,0.1,0.6c0.8,3.3-0.2,12.3-1.3,13.8c0,0-1,1.4-1.2,1.5l-0.9,0.6c-1.6,0.5-4.1,1.5-6.7,0.8c-2.2-0.5-5.5-4.6-4.2-8.6c0-0.2,0.8-0.9,0.8-0.9s1.2-0.1,1.7,0c1.1,0.3,2.7,3.6,3.3,3.9c0.7,0.3,1.2,0.2,1.7,0c3-1.1,1.8-12.2,2.1-16.4c-0.4-0.2-1-1.2-1.3-1.3c-5-1.7-6.8,6.2-12.1,1.3c-1-0.9-0.1-2.1,0.4-3c1-1.8,2.6-1.1,4.9-1.7c0.3-0.1,1.6-1.2,1.8-1.3c1.2-0.5,2.2,0.1,3.3-0.4c0.7-0.4,2.7-3.5,2.9-4.3c0.6-3.3-0.6-9.4-2.9-9.9c-1.7-0.4-2.5,0.7-3.3,0.9c-1.5,0.3-4.2,1-5.8,0.4c-0.2,0-0.8-0.9-0.8-0.9s-0.1-2.5,0.4-3.4l0.8-0.7c0.3-0.1,1.2-0.5,1.7-0.6c2.1-0.5,4.5,0.4,6.7,0c0.7-0.2,1.9-1.1,2.5-1.3c-0.3-2.3-1-9.9,0.4-11.2C23.7,69.5,23.4,69.5,24.5,69.1L24.5,69.1z" />
            <path stroke-width="3" fill-opacity="0" stroke="#000000"
                d="M182,104.4c1-0.9,3.5-4.4,4.2-5.6c0.1-0.2,0.8-1.3,0.8-1.3c0.3-1.7-0.6-3.6-0.8-4.7c0,0,0.6-0.9,0-1.7c-0.6-0.9-2.5,0.5-3.7,1.3c-0.5,0.3-0.4,1-0.8,1.3c-3.2,2.3-3.8,2.5-7.1,0.9c-0.5-0.7-0.9-1.1,0-2.6c0.9-1.5,5.5-3.9,8.4-5.2c-0.1-1.1,0.3-2.9,0-3.9c-0.1-0.2-1.1-0.7-1.2-0.9c-5.2-6.3-2.9-7.8-2.9-7.8s3.1-1.8,5-0.9c1.9,0.9,3.9,11.1,6.2,4.7c0.2-0.5,1-2.3,0.8-3c-0.1-0.5-1.6-1.3-1.7-1.7c-0.1-0.4,0-1.8,0-1.8l0.4-0.8c0.6-0.3,1.7-0.9,1.7-0.9s1.7-0.1,2.5,0.4c0.5,0.3,2.4,4.7,2.5,5.6c0.1,1.3-0.4,3.7-0.8,4.7c-0.3,0.5-1.4,1-1.7,1.7c-0.4,1.1,0,1.6-0.4,2.6c-0.3,0.5-1.5,1-1.7,1.7c-0.8,3.9,2.5,9.1,2.9,12.5c1.5,12.1-0.5,26.4-7.5,31.1c-0.1,0-1.1,0.2-1.2,0.3l-2.6-0.7c-0.4-0.7-1.2-1.2-1.6-1.7c-0.6-0.8-0.7-1.8-1.3-2.6c-0.4-0.5-1.9-1.2-2.1-1.7c-2-4.6,2.2-4.4,4.6-3c0.5,0.3,1.4,1.7,2.1,1.7c0.9,0.1,1.2-0.6,1.7-0.8c3.5-2,1.4-3.8,1.7-7.3c0-0.7,1.2-2.5,1.3-3c0.5-3.2-0.2-6-0.8-8.2c-0.1,0.1-1.2,0.3-1.3,0.4c-0.6,0.6-0.5,1.9-0.8,2.6c-0.7,1.1-2,2.1-2.9,3c-1.3,1.2-2.7,3.5-4.6,3.9c-0.7,0.1-2.6-0.5-2.5-0.5c0,0-1.4,0.5-2.1-1.7c-0.7-2.2,2.7-2.7,5.9-5.2L182,104.4L182,104.4z" />
            <path stroke-width="3" fill-opacity="0" stroke="#000000"
                d="M227.5,70.7c3.6-0.6,5.2,1.8,4.2,4.7c-1.6,4.4-9.4,3.8-14.6,4.8c-0.7,0.1-2.6,1.2-3.3,1.3c-2.2,0.3-3.8-0.4-5.9,0.4c-1,0.4-1.7,1.1-2.5,1.7c-0.8,0.6-1.6,1-2.1,1.7c-0.5,0.7-0.4,1.7-0.4,1.7s0.5,4.1,0.8,5.6c0.3,1.2,1.9,3.2,2.1,4.7c1.1,7.3-2.8,29.3-5.4,31.9c-2.4,2.3-3.8,2.2-5,1.3c-1.2-0.9-0.8-0.8-1.3-1.7c-0.6-1.3-0.4-2.6-0.4-2.6c0.4-0.8,0-1.4,0.4-2.1c0.6-1.1,2.3-2,2.9-3c0.2-0.3-0.1-1,0-1.3c0.2-1.2,1.8-3,2.1-4.3c1.6-6.3,2.6-11.6,2.1-18.6c-0.4-5.6-5.1-9.7-3.3-15.5c0.1-0.6,1.2-2.8,1.7-3.5c2.3-3.1,10.7-0.4,15.4-1.7c0.3-0.1,1.3-1.2,1.7-1.3c1.6-0.5,2.6,0,4.2-0.4c2-0.5,3.7-2,5.4-3C226.6,71.3,226.8,70.8,227.5,70.7L227.5,70.7z" />
            <path stroke-width="3" fill-opacity="0" stroke="#000000"
                d="M228.3,83.7c0,0,1.4,0,2.1,0.4c2.6,1.5,0.2,4.6-0.4,6.5c-0.5,1.4-1.3,3.5-1.7,4.8c-0.2,0.7,0.2,1.4,0,2.1c-0.1,0.4-0.5,1.6-1.3,1.7c-0.7,0.1-1.4-0.4-1.7-0.9c-1.4-2.4-1.2-10.1,0-12.5C225.8,84.9,228.3,83.7,228.3,83.7L228.3,83.7z" />
            <path stroke-width="3" fill-opacity="0" stroke="#000000"
                d="M215.7,86.2c0,0,1.4,0.3,1.8,0.9c0.5,0.8,0.2,1.6,0.4,2.6c0.7,3.8,0.5,9.3-0.4,13c-0.4,1.4-1.9,3.4-2.1,4.7c-0.1,0.5,0.1,1.3,0,1.7c-0.5,1.5-2.2,4.2-2.5,6c-0.7,4.2,1,7.8,5.4,6.5c0.7-0.2,1.1-1.3,1.7-1.7c-0.5-3.8-3.2-8.5,1.7-6c3.6,1.8,4.3,5.9,5,10.8c-0.2,0.5-0.6,1.2-1.7,1.3c-1,0.1-1.3-0.1-1.7-0.4c-0.3-0.2-0.3-0.3-0.8-1.3c-0.5-1-1.1-0.7-1.3,0c-0.3,0.1-0.4,1.3-0.4,1.3s-3.3,3.4-10,0.8c-2.4-1.6-3.4-8.2-2.1-12.1c0.3-1,1.7-2.4,2.1-3.5c0.8-2.3,0.8-4.2,1.7-6.5c0.3-0.8,1.5-2.1,1.7-3c0.7-4.3-1.7-6.3-2.1-9.5c-0.3-2.5,0-3.8,1.3-4.8c0.7-0.5,0.5-0.5,1.7-0.8L215.7,86.2L215.7,86.2z" />
            <path stroke-width="3" fill-opacity="0" stroke="#000000"
                d="M226.6,100.5c0.1,0.1,1.1,0.3,1.2,0.5c1.5,1.5,1.4,6.8,2.1,9.5c1.2,4.9,4.2,10.4,7.5,13.4c0.5,0.5,0.9,1.4,1.7,1.7c2.2,0.8,4.2,0.3,5,2.6c1.8,4.8-5.1,4.8-7.9,3c-1.2-0.7-4.8-4.4-5.4-5.6c-1.2-2.2-1.2-4.5-2.1-6.9c-0.5-1.4-2.1-3.4-2.5-4.8c-0.7-2.4-1.2-11.1-0.4-12.9L226.6,100.5L226.6,100.5z" />
            <path stroke-width="3" fill-opacity="0" stroke="#000000"
                d="M223.7,137.2c2,0,5.2,1,6.7,1.7c6.4,3.3-8.2,3.4-11.7,2.6C212.7,140,221,137.2,223.7,137.2L223.7,137.2z" />
            <path stroke-width="3" fill-opacity="0" stroke="#000000"
                d="M124.3,137.6c7.9-1.3,12.7,2.2,19.6,1.7c2.9-0.2,9-1.4,9.6-0.9c0.6,0.5,0.4,1.7,0.4,1.7l-0.8,0.8c-2.6,1-29.9,0.3-30.9-0.4C120.3,139.3,122.7,137.9,124.3,137.6L124.3,137.6z" />
            <path stroke-width="3" fill-opacity="0" stroke="#000000"
                d="M208.3,137.6c2.4-0.1,4.6,0.6,5,1.3c0.4,0.7,0.5,1.1-0.4,1.7c-0.9,0.7-12.9,0.3-19.6,0.9c-9.2,0.7-31.1,0.8-31.7-0.9c-0.7-1.7,0.7-1.7,1.7-2.1c2.1-0.9,6-0.4,8.7-0.4c6.6,0,14.1,0,20.1,0.4c1.3,0.1,3.3-0.4,4.6,0l0.8,0.9C201.5,139.9,204.7,137.8,208.3,137.6L208.3,137.6z" />
            <path stroke-width="3" fill-opacity="0" stroke="#000000"
                d="M15.8,138.1c4.5-0.6,9.1,0.6,12.5,0.9c21.6,1.7,44.2-1.2,65.1,0.4c6.3,0.5,18.8,0.4,18.8,0.4s1,0.4,0.4,1.3c-0.6,0.9-7,0.2-10.9,0.5c-21,1.6-43.9-1.3-65.5,0.4c-2.6,0.2-6.9,0.7-10,0.4c-0.9-0.1-2.3-0.6-3.8-0.4c-0.7,0.1-2.6,1.1-3.3,1.3c-2.8,0.6-5.7,0.4-8.4,0c0-0.2-0.8-0.7-0.4-2.2C10.8,139.6,13.5,138.4,15.8,138.1L15.8,138.1z" />
            <path stroke-width="3" fill-opacity="0" stroke="#000000"
                d="M237.9,138.1c3-0.9,7.4,0.9,7.9,1.7c0.6,0.8-0.4,1.8-0.4,1.8c-3.3-0.3-8.4,0-9.2-0.9C235.4,139.9,237.9,138.1,237.9,138.1L237.9,138.1z" />
            <path stroke-width="3" fill-opacity="0" stroke="#000000"
                d="M142.7,182.5c5.4-0.2,5.8,8.5,0.8,9.1C137.5,192.3,137.3,182.7,142.7,182.5L142.7,182.5z" />
            <path stroke-width="3" fill-opacity="0" stroke="#000000"
                d="M172.3,170.2c-0.6-3.6-2.5-5.8-6.2-5.8c-5.5,0-7.2,5.4-7.2,10.2c0,4.6,1.1,10.4,7.2,10.4c3,0,5.5-2.3,6.3-6.4h4.3c-0.5,4.3-3,10.4-10.7,10.4c-7.3,0-11.8-5.7-11.8-13.5c0-8.4,3.9-15,12.6-15c6.9,0,9.5,5.2,9.8,9.9L172.3,170.2L172.3,170.2L172.3,170.2L172.3,170.2z" />
            <path stroke-width="3" fill-opacity="0" stroke="#000000"
                d="M183,174.7c0-3.6,1.3-10.3,7.6-10.3c6.3,0,7.6,6.7,7.6,10.3c0,3.6-1.3,10.4-7.6,10.4C184.3,185,183,178.3,183,174.7L183,174.7z M178.4,174.7c0,7,3.8,14.3,12.1,14.3c8.3,0,12.1-7.3,12.1-14.3c0-7-3.8-14.3-12.1-14.3C182.2,160.4,178.4,167.7,178.4,174.7L178.4,174.7z" />
            <path stroke-width="3" fill-opacity="0" stroke="#000000"
                d="M206.8,161.1h4.2v3.9h0.1c1-1.4,3.2-4.6,7.9-4.6c4.7,0,6.2,2.9,7,4.4c2.2-2.5,3.9-4.4,8-4.4c2.8,0,8.1,1.5,8.1,9.1v18.7h-4.4v-17.5c0-3.8-1.1-6.3-4.8-6.3c-3.7,0-6.2,3.6-6.2,7.3v16.5h-4.4v-18.7c0-2.3-0.8-5-4.1-5c-2.5,0-6.9,1.7-6.9,9v14.8h-4.4V161.1L206.8,161.1L206.8,161.1z" />
            <path stroke-width="3" fill-opacity="0" stroke="#000000"
                d="M19.6,155.6c0,0,2.1-0.4,3.6,0c1.4,0.4,1.6,0.8,1.7,1.5c0.1,0.7,0,1.5-1.8,2.4c-1.1,0.6-1,0.6-1.1,0.6c-0.1,0-0.5-0.1-1,0.1c-0.5,0.2-0.7,0.2-1.7,1.3c-1,1.2-0.9,1.2-0.9,1.2v2.7c0,0,0.4,2,1.2,3c0.7,1-0.2,2.5-2,1.9c-1.7-0.7-2.8-1-3.6-2.7c-0.8-1.7,0.1-4.1,0.5-4.9c0,0,0.7-0.2,1-1.2c0,0,0.6-0.7,0.1-1.8C15.1,158.6,18.1,156.3,19.6,155.6L19.6,155.6z" />
            <path stroke-width="3" fill-opacity="0" stroke="#000000"
                d="M25.9,156.4c0,0-0.3,1.1,0.7,2.3c0.9,1.3,1.2,1.8,2,2.6c0.8,0.7,0.7,0.8,2.1,0.8c1.4,0,1.4-1,1.4-1.9c-0.1-0.9,0.3-1.5-1-2.9c-1.2-1.4-3.1-1.8-4.1-1.8C25.9,155.5,25.9,156.4,25.9,156.4L25.9,156.4z" />
            <path stroke-width="3" fill-opacity="0" stroke="#000000"
                d="M21.9,169.3c-0.5,0-1.1,0-1.7,0.2c0,0-0.5,0.7,0.2,1.4c0.7,0.7,1.1,1.3,2,1.7c1,0.5,0.9,0.5,1.7,0.7c0.8,0.1,1.4,0,2.1,0.4c0.7,0.4,2,1.3,2.3,2.2c0.3,0.8,0.1,1.9,0,2.7c-0.1,0.8-0.1,1-0.1,1s0.1,0.7-1.5,1.4c-1.6,0.8-1,0.7-2.2,1.3c-1.2,0.6-1,0.4-1,0.4s0.2,0.2-1,0c-1.2-0.3-1.9-0.1-2-0.3c-0.1-0.1-0.8-0.8-1.8-0.3c0,0-1.2,0.6-1.3-0.6c-0.1-1.1,0.2-4-2.9-3.7c0,0-1.3,0.5-0.5,2.9c0,0,0.8,1.7,1.5,2.3s0.9,0.8,1.7,2.2c0.8,1.5,1.8,1,3.3,1c1.6,0,3.3,0,3.3,0s0.2-0.5,2.4-0.3c0,0,1.5-0.6,2.4-1.9c0,0,2.3-0.5,2.7-2.6c0,0,0.4-0.5,0.5-2.2c0,0-0.2-0.8-0.6-2c0,0-0.1-0.7,0.1-1.5c0.2-0.9-0.2-2.2-1-3.2c-0.7-1.1-2.2-2.2-3.2-2.5c-1-0.3-0.8-0.2-0.8-0.2s-2.3,0.1-3,0C23.1,169.5,22.6,169.3,21.9,169.3L21.9,169.3z" />
            <path stroke-width="3" fill-opacity="0" stroke="#000000"
                d="M47.6,167.3c-0.9,0.2-2.8,1.9-3.2,4c-0.4,2.1,0,5.8,0.5,7.3c0.5,1.5,1.8,4.1,3,5.2c1.2,1.1,3,1.6,3,1.6s0.6,0,1,0.6c0.3,0.6,0.8,1.2,1.2,1.6c0.3,0.3,0.4,0.3,1.5,0.2c1.2-0.1,1.7,0.5,3.3-0.9c1.6-1.3,1.1-1.4,2-1.8c0,0,0-0.2,0.5-0.3c0.5-0.1,2.2-0.4,2.9-2.7c0.7-2.3,1.1-3.4,0.9-5.3v-1.5c0,0-0.3-1.5-1.2-2.4l-0.1-0.6c0,0-0.2-0.7,0.3-1.3c0.5-0.6,1.1-1.7,1.1-1.7s0.3-0.5,0.2-2.4c-0.2-1.9-0.5-2.9-1.2-3.8c-0.7-0.8-0.6-1.9-0.6-2.6c-0.1-0.7-2.1-3.4-3.2-4.4l-0.5-0.6c0,0-1.5,0.3-2.4-0.3c-1-0.7-1.5-0.5-2.4-0.4c0,0-0.9,0.6-1.4,1.2c-0.5,0.5-0.5,0.6-0.5,0.6s-1.3,0.1-1.8,0.3c-0.5,0.2-2.6,2.5-3,3.7c0,0-0.3,2.2,0.1,2.9c0,0,0.2,1.3,1.1,1.1c0.9-0.1,0.5,0,0.5,0s1.8-3.3,3.1-4.3c1.3-0.9,2.3-1.6,4.7-0.4c0,0,1,0.7,1.7,2c0.8,1.3,1.2,1.1,1.6,1.8c0.4,0.7,0.7,3.2,1,4.5c0.3,1.3,0.3,1.4,0.3,1.4s0.7,1.7,0.7,2.7c0,1-0.6,2.6-0.9,3.1c-0.3,0.5-0.2,1.9-0.3,2.6c-0.1,0.7-0.3,1.6-1,2.3c-0.7,0.7-1.1,1.6-2.4,2.6c-1.3,1-1.1,0.9-1.1,0.9s-1.7,1.1-3.2,0.1c-1.4-0.9-3-2.2-4-4.3c-1-2.1-1.2-5.1-1-6.7c0.3-1.6,0.8-3.7,0.4-4.5C48.3,167.7,47.8,167.2,47.6,167.3L47.6,167.3z" />
            <path stroke-width="3" fill-opacity="0" stroke="#000000"
                d="M79,154.2c0,0-1.9,0.4-1.9,1.2c0,0.8,0,2.4,0.3,3.4c0.3,1.1,0.7,2.3,1.1,2.6c0.3,0.4,0.5,0.6,0.5,0.6l0.1,3.6c0,0-1.3,2.3-1.4,3.5c-0.1,1.2-0.2,6.1-0.2,7.1c0,1,0,3-0.4,4.2c-0.4,1.3-0.6,2.3-0.1,4.4c0.5,2.1,0.5,2.5,0.8,2.8c0.4,0.4,1.5,1.1,2.3,0c0.7-1.1,0.7-1.5,0.9-2.8c0.1-1.4,0.4-6,0.3-6.4c-0.1-0.5-0.2-1.6-0.2-1.6l0.2-3.9l1.1-1.3c0,0,1.2-0.5,0.2-2.4c-1-1.9-1.5-3-1.5-3s-0.3-1,0-2.3c0.2-1.3,0.2-2.2,0.6-3c0.3-0.8,0.4-3.4,0.3-4.7C81.5,155.3,80.5,153.7,79,154.2L79,154.2z" />
            <path stroke-width="3" fill-opacity="0" stroke="#000000"
                d="M91.7,154.1c0,0-1.3,1.1-1.3,2.6c-0.1,1.5,0.3,1.9,0.4,2.3c0.1,0.4-0.7,1.7-0.4,3.1c0.3,1.4,1.2,2.3,1.2,2.3l0.1,0.5c0,0-0.1,1-0.7,1.7c-0.6,0.7-0.7,1.1-1.4,1.4c-0.7,0.3-3.4,0.3-4.6,0.5c-1.2,0.2-1.5,1.9-0.2,2.2c1.4,0.4,4.4,0.3,4.4,0.3s1.1,0.5,1.2,1.6c0.1,1.1,0.1,3.2,0.1,5.1c0,2-0.2,8.3-0.2,8.3s-0.1,1.7,1.5,2.1c1.7,0.3,2.9-0.2,2.9-2.1c0,0,0-4.2-0.3-7c-0.3-2.9-0.4-3.2-0.4-3.2l0.7-7.9l-2-3.3c0,0-0.2-0.3,0.4-1.1c0.7-0.8,1.2-0.8,1.6-3.5c0.4-2.6,0.4-3.5,0.4-3.5S95.4,153.8,91.7,154.1L91.7,154.1z" />
            <path stroke-width="3" fill-opacity="0" stroke="#000000"
                d="M113.6,154.9c0,0-0.6-1.1-1.9,0c-1.2,1.2-2.1,2.3-2.1,2.3s-1.4,1.6,0.5,3.4c1.9,1.9,0.4,0.5,0.4,0.5s-0.3,4-0.3,4.9c0,0.9,0.4,1.4,0.4,2.3c0,0.9-0.3,2.3-0.5,3.9c-0.2,1.6-0.7,5-0.5,6.3c0.2,1.3,0.6,2.6,0.6,3.8c0,1.3,0.4,2,1.3,2.8c0.9,0.7,4,2.6,5,3.2c1,0.6,2.4,1.1,4.9-0.5c2.4-1.6,4.3-3.2,4.7-4.9c0.5-1.7,0.5-2.1,0.5-2.1s0.1-5.9-0.1-7.3c-0.2-1.5-2.1-2.9-3.3-0.9l-0.2,0.3c0,0,0.3,3.8,0,5.6c-0.3,1.8-0.4,2.8-1.9,3.9c-1.5,1.1-3.4,1.8-5.3-0.3c-1.9-2.1-2-2.7-2-5.8c0-3.2,0-8.2,0.2-9.9c0.2-1.7,1.1-6.6,0.5-9C113.8,155.1,113.6,154.9,113.6,154.9L113.6,154.9z" />
            <path stroke-width="3" fill-opacity="0" stroke="#000000"
                d="M124,155c0,0-1.6,0.4-1.4,4.5c0.2,4.1,0.3,5.3,0.1,7.1c-0.1,1.8,0.2,3,1.4,3c1.2-0.1,2.1-1,2.7-3.6c0.7-2.6,0.9-4.9,0.6-7.3c-0.3-2.4-0.2-2.5-0.9-3.4C125.9,154.4,125,154.4,124,155L124,155z" />
        </g>
    </g>
</svg>